# xmcd CD database file
#
# Track frame offsets:
#	150
#	12462
#	22262
#	41667
#	54840
#	66957
#	81937
#	92685
#	103477
#	116025
#
# Disc length: 1727 seconds
#
# Revision: 1
# Processed by: cddbd v1.5.2PL0 Copyright (c) Steve Scherf et al.
# Submitted via: CDex 1.79
#
DISCID=8906bd0a
DTITLE=Roy Clark - Roy Clark`s Greatest
DYEAR=1989
DGENRE=Country
TTITLE0=The Tip Of My Fingers
TTITLE1=Take Me As I Am (Or Let Me Go)
TTITLE2=Malaguena
TTITLE3=You Took Her Off My Hands (Now Take Her Off My Mind)
TTITLE4=My Baby's Gone
TTITLE5=He'll Have To Go
TTITLE6=Happy To Be Unhappy
TTITLE7=Just A Closer Walk With Thee
TTITLE8=Which One Is To Blame
TTITLE9=When The Wind Blows In Chicago
EXTD=YEAR: 1989
EXTT0=
EXTT1=
EXTT2=
EXTT3=
EXTT4=
EXTT5=
EXTT6=
EXTT7=
EXTT8=
EXTT9=
PLAYORDER=
